HIERARCHY
ROOT Hips
{
	OFFSET 0.00000 0.00000 0.00000
	CHANNELS 6 Xposition Yposition Zposition Zrotation Yrotation Xrotation 
	JOINT LHipJoint
	{
		OFFSET 0 0 0
		CHANNELS 3 Zrotation Yrotation Xrotation
		JOINT LeftUpLeg
		{
			OFFSET 2.05677 -1.58049 1.10403
			CHANNELS 3 Zrotation Yrotation Xrotation
			JOINT LeftLeg
			{
				OFFSET 2.02748 -5.57047 0.00000
				CHANNELS 3 Zrotation Yrotation Xrotation
				JOINT LeftFoot
				{
					OFFSET 2.69552 -7.40589 0.00000
					CHANNELS 3 Zrotation Yrotation Xrotation
					JOINT LeftToeBase
					{
						OFFSET 0.09402 -0.25831 1.95424
						CHANNELS 3 Zrotation Yrotation Xrotation
						End Site
						{
							OFFSET 0.00000 -0.00000 0.99937
						}
					}
				}
			}
		}
	}
	JOINT RHipJoint
	{
		OFFSET 0 0 0
		CHANNELS 3 Zrotation Yrotation Xrotation
		JOINT RightUpLeg
		{
			OFFSET -1.90113 -1.58050 1.10403
			CHANNELS 3 Zrotation Yrotation Xrotation
			JOINT RightLeg
			{
				OFFSET -2.04535 -5.61956 0.00000
				CHANNELS 3 Zrotation Yrotation Xrotation
				JOINT RightFoot
				{
					OFFSET -2.62202 -7.20394 0.00000
					CHANNELS 3 Zrotation Yrotation Xrotation
					JOINT RightToeBase
					{
						OFFSET -0.10393 -0.28555 1.99081
						CHANNELS 3 Zrotation Yrotation Xrotation
						End Site
						{
							OFFSET -0.00000 -0.00000 1.01862
						}
					}
				}
			}
		}
	}
	JOINT LowerBack
	{
		OFFSET 0 0 0
		CHANNELS 3 Zrotation Yrotation Xrotation
		JOINT Spine
		{
			OFFSET -0.08023 1.81443 -0.26993
			CHANNELS 3 Zrotation Yrotation Xrotation
			JOINT Spine1
			{
				OFFSET 0.04312 1.79960 0.09924
				CHANNELS 3 Zrotation Yrotation Xrotation
				JOINT Neck
				{
					OFFSET 0 0 0
					CHANNELS 3 Zrotation Yrotation Xrotation
					JOINT Neck1
					{
						OFFSET -0.04205 1.79103 0.11343
						CHANNELS 3 Zrotation Yrotation Xrotation
						JOINT Head
						{
							OFFSET 0.06228 1.77547 -0.31107
							CHANNELS 3 Zrotation Yrotation Xrotation
							End Site
							{
								OFFSET 0.01771 1.81538 -0.11931
							}
						}
					}
				}
				JOINT LeftShoulder
				{
					OFFSET 0 0 0
					CHANNELS 3 Zrotation Yrotation Xrotation
					JOINT LeftArm
					{
						OFFSET 3.63907 0.79660 -0.40306
						CHANNELS 3 Zrotation Yrotation Xrotation
						JOINT LeftForeArm
						{
							OFFSET 4.83799 -0.00000 0.00000
							CHANNELS 3 Zrotation Yrotation Xrotation
							JOINT LeftHand
							{
								OFFSET 2.68259 -0.00000 0.00000
								CHANNELS 3 Zrotation Yrotation Xrotation
								JOINT LeftFingerBase
								{
									OFFSET 0 0 0
									CHANNELS 3 Zrotation Yrotation Xrotation
									JOINT LeftHandIndex1
									{
										OFFSET 0.72476 -0.00000 0.00000
										CHANNELS 3 Zrotation Yrotation Xrotation
										End Site
										{
											OFFSET 0.58432 -0.00000 0.00000
										}
									}
								}
								JOINT LThumb
								{
									OFFSET 0 0 0
									CHANNELS 3 Zrotation Yrotation Xrotation
									End Site
									{
										OFFSET 0.59325 -0.00000 0.59325
									}
								}
							}
						}
					}
				}
				JOINT RightShoulder
				{
					OFFSET 0 0 0
					CHANNELS 3 Zrotation Yrotation Xrotation
					JOINT RightArm
					{
						OFFSET -3.79008 0.56049 -0.20494
						CHANNELS 3 Zrotation Yrotation Xrotation
						JOINT RightForeArm
						{
							OFFSET -4.61639 -0.00000 -0.00000
							CHANNELS 3 Zrotation Yrotation Xrotation
							JOINT RightHand
							{
								OFFSET -2.86915 -0.00000 0.00000
								CHANNELS 3 Zrotation Yrotation Xrotation
								JOINT RightFingerBase
								{
									OFFSET 0 0 0
									CHANNELS 3 Zrotation Yrotation Xrotation
									JOINT RightHandIndex1
									{
										OFFSET -0.72601 -0.00000 0.00000
										CHANNELS 3 Zrotation Yrotation Xrotation
										End Site
										{
											OFFSET -0.58533 -0.00000 0.00000
										}
									}
								}
								JOINT RThumb
								{
									OFFSET 0 0 0
									CHANNELS 3 Zrotation Yrotation Xrotation
									End Site
									{
										OFFSET -0.59426 -0.00000 0.59426
									}
								}
							}
						}
					}
				}
			}
		}
	}
}
MOTION
Frames: 16
Frame Time: .0083333
-1.8850 15.9416 2.6328 4.9328 2.5954 0.9964 0.0000 0.0000 0.0000 -26.7645 3.2156 15.6826 1.6555 8.1082 23.0433 -0.1070 -6.0580 0.3124 0.1051 2.0909 5.7569 0.0000 0.0000 0.0000 13.6967 24.4923 -22.9795 -2.9605 -10.6308 31.0445 0.0780 -8.2185 -9.9785 -3.5994 -11.6074 34.3568 -8.9158 -0.5780 11.7945 1.2604 -2.1261 -4.6345 6.8879 -0.2923 -11.4053 -4.5685 -5.1069 -11.4907 2.9852 -6.8228 19.9964 1.0214 -3.2873 8.3664 0.0000 0.0000 0.0000 -90.4253 3.5191 29.4367 12.9661 -21.2375 -2.4410 -0.0000 0.0000 -0.4839 5.1704 20.1762 1.7876 -7.1250 0.0000 -0.0000 -22.5781 48.8477 -2.2477 0.0000 0.0000 0.0000 87.3703 -14.4144 23.2265 -9.5229 15.9898 -1.3405 0.0000 0.0000 14.2664 -9.4371 22.5811 -3.6519 7.1250 -0.0000 -0.0000 12.1956 -7.5397 10.7426
-1.9146 15.9476 2.7858 4.7840 2.7586 0.8634 0.0000 0.0000 0.0000 -26.0375 3.3980 14.0284 2.0898 9.0508 25.9543 -0.1119 -5.9459 2.7343 0.2041 2.9089 8.0252 0.0000 0.0000 0.0000 14.3518 24.3814 -22.2887 -3.0144 -10.7182 31.3354 0.0726 -8.2561 -10.1764 -3.4335 -11.3657 33.5234 -8.8173 -0.5604 11.9650 1.2416 -2.1057 -4.6509 6.8148 -0.2825 -11.5328 -4.5444 -5.0527 -11.2868 3.1466 -6.7922 19.8971 1.0806 -3.2584 8.2994 0.0000 -0.0000 0.0000 -90.3045 3.9720 29.1370 12.9151 -21.1627 -2.4225 -0.0000 0.0000 -0.4224 4.8267 20.0642 1.6594 -7.1250 0.0000 -0.0000 -22.8381 48.6952 -2.1866 0.0000 -0.0000 0.0000 87.4970 -14.3278 22.8420 -9.4598 15.8902 -1.3232 0.0000 0.0000 14.5756 -9.1208 22.1919 -3.4702 7.1250 -0.0000 -0.0000 12.3875 -7.9534 10.8170
-1.9414 15.9595 2.9405 4.6463 2.9128 0.7945 0.0000 0.0000 0.0000 -25.4237 3.3130 12.2542 2.6056 10.0274 29.0654 -0.0941 -5.9587 4.7846 0.2007 2.8844 7.9571 0.0000 0.0000 0.0000 14.9808 24.0596 -21.5757 -3.0233 -10.7327 31.3836 0.0699 -8.2894 -10.2955 -3.2929 -11.1547 32.8034 -8.6935 -0.5915 11.9427 1.2326 -2.1248 -4.6399 6.7366 -0.3033 -11.5053 -4.6354 -5.0340 -10.9381 3.4725 -6.8187 19.5362 1.2119 -3.2530 8.1314 -0.0000 0.0000 0.0000 -90.1988 4.3549 28.7300 12.8103 -21.0087 -2.3849 -0.0000 0.0000 -0.1151 4.4894 20.0057 1.5387 -7.1250 0.0000 -0.0000 -23.1166 48.5934 -2.1554 -0.0000 0.0000 0.0000 87.5845 -14.0634 22.5213 -9.3456 15.7096 -1.2921 0.0000 0.0000 14.8845 -8.4075 21.6121 -3.1160 7.1250 -0.0000 -0.0000 12.8291 -8.5889 11.0576
-1.9694 15.9810 3.0930 4.2229 3.0186 0.7609 0.0000 0.0000 0.0000 -24.5216 3.1224 10.3304 3.1835 10.9864 32.2341 -0.0553 -6.0364 6.8476 0.1735 2.6833 7.3981 0.0000 0.0000 0.0000 15.9147 23.8558 -20.7742 -3.0055 -10.7040 31.2878 0.0593 -8.3140 -10.5880 -3.2310 -11.0600 32.4825 -8.3533 -0.6218 11.9395 1.3350 -2.0961 -4.6224 6.6500 -0.3119 -11.4903 -4.6426 -5.0585 -11.1988 3.5733 -6.8689 19.7128 1.2331 -3.2626 8.2439 0.0000 -0.0000 0.0000 -90.1342 4.6596 28.5342 12.6968 -20.8414 -2.3443 -0.0000 0.0000 -0.0251 4.5437 20.2208 1.5734 -7.1250 0.0000 -0.0000 -23.1694 48.7987 -2.2834 0.0000 -0.0000 0.0000 87.5835 -13.7585 22.4682 -9.2932 15.6265 -1.2780 0.0000 0.0000 14.9057 -7.5603 20.5330 -2.6653 7.1250 -0.0000 -0.0000 13.3649 -9.7181 11.2354
-1.9980 15.9987 3.2398 3.6561 3.1907 0.7425 0.0000 0.0000 0.0000 -23.4774 2.7911 8.3919 3.8163 11.9119 35.4210 0.0180 -5.9530 8.9768 0.1763 2.7046 7.4575 0.0000 0.0000 0.0000 16.9869 23.6589 -19.9348 -2.9642 -10.6369 31.0650 0.0345 -8.2324 -11.0155 -3.2214 -11.0451 32.4323 -7.9246 -0.6731 12.0620 1.5116 -2.0858 -4.6540 6.6068 -0.3233 -11.6031 -4.5709 -5.1405 -11.6976 3.3851 -6.9583 20.2537 1.1323 -3.3070 8.5114 0.0000 -0.0000 0.0000 -90.1456 4.9493 28.1905 12.5962 -20.6927 -2.3086 -0.0000 -0.0000 0.1810 4.5952 20.2841 1.5960 -7.1250 0.0000 -0.0000 -23.1530 48.8641 -2.3206 0.0000 -0.0000 0.0000 87.5012 -13.6140 22.5059 -9.3378 15.6972 -1.2900 0.0000 0.0000 15.0535 -6.9543 19.6499 -2.3488 7.1250 -0.0000 -0.0000 13.7602 -10.6279 11.3266
-2.0222 16.0123 3.3882 3.2857 3.4012 0.7266 0.0000 0.0000 0.0000 -22.7065 2.3423 6.6351 4.4839 12.7779 38.5426 0.1563 -5.4424 11.3947 0.2788 3.3963 9.3840 0.0000 0.0000 0.0000 17.7961 23.1576 -19.1664 -2.9142 -10.5548 30.7928 -0.0082 -7.8414 -11.3521 -3.3059 -11.1744 32.8704 -7.5873 -0.7022 12.0314 1.5764 -2.0570 -4.6307 6.4780 -0.3349 -11.5665 -4.5948 -5.2332 -11.6273 3.4347 -7.0961 20.2446 1.1387 -3.3698 8.5044 -0.0000 0.0000 0.0000 -90.0868 5.1681 27.8828 12.5216 -20.5822 -2.2823 -0.0000 -0.0000 0.6043 4.3936 20.2849 1.5259 -7.1250 0.0000 -0.0000 -23.3365 48.8358 -2.3239 -0.0000 0.0000 0.0000 87.5518 -13.3647 22.3440 -9.3712 15.7501 -1.2990 0.0000 0.0000 15.0825 -7.2649 19.8312 -2.4764 7.1250 -0.0000 -0.0000 13.5599 -10.4273 11.2087
-2.0420 16.0298 3.5372 3.0074 3.4902 0.7812 0.0000 0.0000 0.0000 -22.1228 1.9082 4.8625 5.1725 13.5755 41.5628 0.3663 -4.5904 14.0510 0.4053 4.0869 11.3214 0.0000 0.0000 0.0000 18.4585 22.6286 -18.5026 -2.8667 -10.4761 30.5328 -0.0391 -7.4635 -11.4648 -3.2935 -11.1556 32.8065 -7.3073 -0.6945 11.8616 1.6014 -1.9808 -4.5697 6.3203 -0.3287 -11.4113 -4.7216 -5.2688 -11.4371 3.7817 -7.1916 19.9735 1.2709 -3.3946 8.4008 -0.0000 0.0000 0.0000 -89.9631 5.3140 27.8511 12.4517 -20.4786 -2.2578 -0.0000 -0.0000 0.7742 4.1662 20.4498 1.4579 -7.1250 0.0000 -0.0000 -23.6228 48.9540 -2.4275 -0.0000 0.0000 0.0000 87.6243 -12.9632 22.0530 -9.3556 15.7253 -1.2948 0.0000 0.0000 15.2060 -8.3746 20.9244 -3.0096 7.1250 -0.0000 -0.0000 12.8492 -9.2661 10.8977
-2.0604 16.0462 3.6805 2.7726 3.6623 0.8396 0.0000 0.0000 0.0000 -21.6240 1.3503 3.1008 5.8768 14.3078 44.4851 0.6560 -3.2674 16.8320 0.5425 4.7192 13.1093 0.0000 0.0000 0.0000 19.0391 22.1315 -17.8592 -2.8145 -10.3885 30.2441 -0.0580 -7.2875 -11.6103 -3.1746 -10.9724 32.1869 -7.0707 -0.7139 11.8396 1.6330 -1.9635 -4.6050 6.2169 -0.3340 -11.4441 -4.8130 -5.3213 -11.3210 4.0057 -7.2955 19.8706 1.3521 -3.4310 8.3622 0.0000 0.0000 0.0000 -89.8623 5.5269 27.8930 12.2875 -20.2344 -2.2007 -0.0000 -0.0000 0.6374 4.1783 20.5273 1.4674 -7.1250 0.0000 -0.0000 -23.6494 49.0266 -2.4747 0.0000 0.0000 0.0000 87.5647 -12.7645 22.2496 -9.4053 15.8040 -1.3083 0.0000 0.0000 14.8616 -8.8745 21.4816 -3.2725 7.1250 -0.0000 -0.0000 12.5361 -8.6744 10.7700
-2.0840 16.0597 3.8207 2.4851 4.0027 0.8503 0.0000 0.0000 0.0000 -20.9874 0.6842 1.3454 6.5995 14.9851 47.3426 1.0720 -1.2882 20.0677 0.7313 5.4638 15.2364 0.0000 0.0000 0.0000 19.7086 21.6475 -17.1064 -2.7476 -10.2748 29.8713 -0.0686 -7.3032 -11.8359 -3.0433 -10.7648 31.4908 -6.8471 -0.8025 11.8677 1.6984 -2.0417 -4.6414 6.1802 -0.3814 -11.4917 -4.6988 -5.3090 -11.2550 3.9703 -7.2922 19.7890 1.3244 -3.4262 8.3166 -0.0000 0.0000 0.0000 -89.8074 5.7767 27.5496 12.0980 -19.9515 -2.1356 -0.0000 -0.0000 1.0189 4.0307 20.1641 1.3915 -7.1250 0.0000 -0.0000 -23.6076 48.6732 -2.2548 -0.0000 0.0000 0.0000 87.5070 -12.5214 22.3738 -9.4575 15.8865 -1.3226 0.0000 0.0000 14.6628 -8.6936 21.2513 -3.1723 7.1250 -0.0000 -0.0000 12.6487 -8.9171 10.8091
-2.1088 16.0741 3.9569 2.0530 4.2164 0.8325 0.0000 0.0000 0.0000 -20.1678 0.1227 -0.5190 7.3469 15.6172 50.1745 1.4910 0.1424 23.0595 0.6669 5.2226 14.5445 0.0000 0.0000 0.0000 20.5603 21.2571 -16.2960 -2.6643 -10.1308 29.4013 -0.0626 -7.4571 -11.9157 -2.8016 -10.3667 30.1725 -6.5826 -0.8535 11.9286 1.8553 -2.0536 -4.6525 6.2092 -0.3968 -11.5391 -4.6033 -5.2926 -11.3604 3.8432 -7.2610 19.8934 1.2668 -3.4142 8.3606 0.0000 0.0000 0.0000 -89.8353 5.9282 27.0504 11.8673 -19.6053 -2.0575 -0.0000 -0.0000 1.6276 3.8508 19.6204 1.2948 -7.1250 0.0000 -0.0000 -23.5124 48.1501 -1.9271 0.0000 0.0000 0.0000 87.3832 -12.1211 22.4187 -9.4524 15.8785 -1.3212 0.0000 0.0000 14.5850 -8.5567 21.1007 -3.1006 7.1250 -0.0000 -0.0000 12.7345 -9.0771 10.8446
-2.1269 16.0954 4.0946 1.8139 4.3728 0.8897 0.0000 0.0000 0.0000 -19.6562 -0.4775 -2.4858 8.0987 16.1914 52.9174 1.8128 0.4061 25.3623 0.7334 5.4712 15.2577 0.0000 0.0000 0.0000 21.1369 20.7017 -15.5764 -2.5684 -9.9612 28.8513 -0.0684 -7.3926 -11.9442 -2.6877 -10.1715 29.5339 -6.4540 -0.8518 11.9056 1.9550 -2.0181 -4.6830 6.2393 -0.3828 -11.5650 -4.5747 -5.3559 -11.3367 3.7403 -7.3372 19.9812 1.2193 -3.4578 8.3843 -0.0000 0.0000 0.0000 -89.8558 6.0445 27.0665 11.6538 -19.2834 -1.9865 -0.0000 -0.0000 1.7027 4.0369 19.6051 1.3565 -7.1250 0.0000 -0.0000 -23.3375 48.1619 -1.9183 -0.0000 0.0000 0.0000 87.1918 -11.7659 22.6824 -9.4268 15.8380 -1.3142 0.0000 0.0000 14.1962 -8.7206 21.4196 -3.2062 7.1250 -0.0000 -0.0000 12.6323 -8.7494 10.8377
-2.1424 16.1293 4.2345 1.8083 4.6310 0.9634 0.0000 0.0000 0.0000 -19.4134 -1.1348 -4.5259 8.8182 16.6893 55.4593 2.0576 0.5022 27.0119 0.8878 6.0062 16.8023 0.0000 0.0000 0.0000 21.4012 20.1267 -14.8688 -2.4972 -9.8329 28.4372 -0.1324 -6.9143 -12.5374 -2.8583 -10.4620 30.4863 -6.4181 -0.8560 11.8794 1.9237 -2.0188 -4.6646 6.1822 -0.3896 -11.5297 -4.6280 -5.4441 -11.3197 3.8287 -7.4659 19.9200 1.2436 -3.5143 8.3723 0.0000 -0.0000 0.0000 -89.6824 6.1045 27.7217 11.6061 -19.2113 -1.9708 -0.0000 -0.0000 1.1946 4.1532 19.9568 1.4197 -7.1250 0.0000 -0.0000 -23.3979 48.5008 -2.1285 0.0000 -0.0000 0.0000 87.0933 -11.3706 22.7990 -9.4543 15.8815 -1.3217 0.0000 0.0000 13.7537 -8.9325 21.6144 -3.3136 7.1250 -0.0000 -0.0000 12.5004 -8.5386 10.7724
-2.1585 16.1601 4.3693 1.8565 4.8712 0.9141 0.0000 0.0000 0.0000 -19.2392 -1.7576 -6.4641 9.5239 17.1333 57.8851 2.1904 0.7865 27.7979 0.6074 4.9885 13.8758 0.0000 0.0000 0.0000 21.6320 19.5724 -14.1092 -2.4463 -9.7395 28.1373 -0.1870 -6.4660 -12.9797 -3.0459 -10.7691 31.5049 -6.4742 -0.8260 11.9439 1.8625 -1.9962 -4.5771 6.1414 -0.3825 -11.4730 -4.6280 -5.5712 -11.2536 3.9325 -7.6651 19.8667 1.2575 -3.5995 8.3559 0.0000 -0.0000 0.0000 -89.5140 6.0758 28.1007 11.5156 -19.0742 -1.9411 -0.0000 -0.0000 1.1290 4.2894 19.9358 1.4650 -7.1250 0.0000 -0.0000 -23.2647 48.5008 -2.1151 0.0000 -0.0000 0.0000 87.1073 -11.0576 22.6719 -9.7055 16.2776 -1.3913 0.0000 0.0000 13.6987 -8.9919 21.4504 -3.3119 7.1250 -0.0000 -0.0000 12.4621 -8.6943 10.6982
-2.1721 16.1444 4.4866 1.7049 4.8527 0.8800 0.0000 0.0000 0.0000 -18.8486 -2.2139 -7.7781 10.1501 17.4934 59.9888 2.3272 4.5825 27.8129 1.6240 8.0347 22.8194 0.0000 0.0000 0.0000 22.0531 19.2671 -13.6507 -2.4312 -9.7117 28.0480 -0.1920 -6.2837 -12.8759 -2.9321 -10.5844 30.8906 -6.4211 -0.7173 11.9929 1.8981 -1.8390 -4.5293 6.1188 -0.3111 -11.4725 -4.6129 -5.7105 -11.0291 3.9102 -7.8584 19.7147 1.2334 -3.6969 8.2716 0.0000 -0.0000 0.0000 -89.4855 6.1171 28.1158 11.3640 -18.8441 -1.8918 -0.0000 -0.0000 1.5867 4.4539 19.7948 1.5110 -7.1250 0.0000 -0.0000 -23.0496 48.3945 -2.0304 0.0000 -0.0000 0.0000 87.0451 -10.7302 22.5381 -9.9077 16.5951 -1.4485 0.0000 0.0000 13.7046 -8.8574 21.2302 -3.2298 7.1250 -0.0000 -0.0000 12.5457 -8.9230 10.7150
-2.1813 16.1427 4.6031 1.4997 4.6282 0.9221 0.0000 0.0000 0.0000 -18.4381 -2.3788 -9.4912 10.7676 17.8195 62.0246 2.2997 6.3183 27.4152 2.4114 9.6751 27.9307 0.0000 0.0000 0.0000 22.4905 19.0353 -13.3302 -2.4305 -9.7105 28.0443 -0.2011 -5.9998 -12.7413 -2.7372 -10.2570 29.8131 -6.2434 -0.5737 12.0249 1.9262 -1.6139 -4.5085 6.0023 -0.2147 -11.5047 -4.6468 -5.7606 -10.8356 4.0034 -7.9368 19.4782 1.2685 -3.7329 8.1664 -0.0000 -0.0000 0.0000 -89.4070 6.1053 28.3288 11.2538 -18.6762 -1.8564 -0.0000 -0.0000 1.6313 4.5573 19.8398 1.5496 -7.1250 0.0000 -0.0000 -22.9770 48.4505 -2.0565 -0.0000 -0.0000 0.0000 86.9100 -10.3164 22.8862 -10.0184 16.7683 -1.4802 0.0000 0.0000 13.1365 -8.8291 20.9348 -3.1766 7.1250 -0.0000 -0.0000 12.5627 -9.2158 10.6549
-2.1891 16.1485 4.7202 1.4928 4.5329 0.9401 0.0000 0.0000 0.0000 -18.2900 -2.5900 -11.1689 11.3423 18.0986 63.8883 2.0174 6.0724 25.6261 2.0216 8.9110 25.5174 0.0000 0.0000 0.0000 22.7096 18.7457 -12.9710 -2.4417 -9.7312 28.1105 -0.2120 -5.8411 -12.7662 -2.5983 -10.0144 29.0235 -6.1957 -0.4592 12.2092 1.8806 -1.4686 -4.5216 5.9016 -0.1438 -11.6542 -4.7038 -5.7850 -10.8100 4.0909 -7.9805 19.5099 1.3021 -3.7492 8.1807 0.0000 0.0000 0.0000 -89.2752 6.1250 28.7866 11.2031 -18.5989 -1.8402 -0.0000 -0.0000 1.4463 4.6301 19.8678 1.5766 -7.1250 0.0000 -0.0000 -22.9242 48.4865 -2.0725 0.0000 0.0000 0.0000 86.7860 -9.9280 23.2641 -10.1327 16.9470 -1.5134 0.0000 0.0000 12.5091 -9.2708 21.1536 -3.3712 7.1250 -0.0000 -0.0000 12.2851 -8.9603 10.4719
